<?xml version="1.0" encoding="utf-8"?>
<!-- Generator: Adobe Illustrator 21.1.0, SVG Export Plug-In . SVG Version: 6.00 Build 0)  -->
<svg version="1.1" id="Layer_1" xmlns="http://www.w3.org/2000/svg" xmlns:xlink="http://www.w3.org/1999/xlink" x="0px" y="0px"
	 viewBox="0 0 170 175.2" style="enable-background:new 0 0 170 175.2;" xml:space="preserve">
<style type="text/css">
	.st0{fill:#FFFFFF;}
	.st1{font-family:'MuseoSans-700';}
	.st2{font-size:51.4084px;}
	.st3{font-family:'MuseoSans-300';}
	.st4{font-size:25.7042px;}
	.st5{fill:#606F73;}
</style>
<text transform="matrix(1 0 0 1 30.2309 91.3177)" class="st0 st1 st2">CAG</text>
<text transform="matrix(1 0 0 1 30.1309 122.1177)" class="st0 st3 st4">FASHION</text>
<path class="st5" d="M85,167"/>
<g>
	<g>
		<g>
			<g>
				<path class="st0" d="M71.4,169.9c-1.5,0-2.9-0.1-4.4-0.2c-12.1-1.4-22.8-8.9-31.8-15.8c-6.6-5.1-13.6-10.6-18.6-17.7
					c-8.8-12.5-10.6-28-9.7-42.4c-2-5.3-3.5-10.7-4.6-16.1c-1.1-5.2-2.1-12-0.4-18.5c1.9-7.2,7-13.2,12-18.7
					c5.3-5.7,11-11.6,17.3-16.9c8.9-9.1,21-15.5,34.3-18.4c6.7-1.9,13.7-2.4,21-1.5c16.2,1.1,32.8,7.2,47.8,17.5
					c0.8,0.5,1.6,1,2.4,1.6c7.4,5,13.8,11,18.9,17.7c3.9,2.9,8.4,6.5,10.4,11.4c1.1,2.7,1.4,5.5,1.7,8.7c0.2,1.9,0.3,3.8,0.5,5.8
					c2.6,10.5,2.3,21.7-0.4,32.3c-1.5,12.1-4.8,24.1-11.5,34.7c-12.6,20-36.7,32.9-61.6,33c-0.9,0-1.8,0-2.7,0
					C85.4,168.1,78.5,169.9,71.4,169.9z M7.3,94.8c-0.7,14,1.1,29,9.7,41.1c5,7,11.9,12.5,18.5,17.6c9,6.9,19.6,14.3,31.6,15.7
					c8,0.9,16-0.9,23.6-3.1c-2.7-0.1-5.5-0.4-8.2-0.9c-1,0.2-2,0.4-3,0.5c-3.2,0.5-7.3,0.9-11.2-0.3c-3.3-1-6.2-3-8.9-5
					c-2.1-1.5-4.1-3.1-6.1-4.7c-12.4-4.4-23.3-12.2-30.7-22.2c-4-5.4-7.4-11.9-10.1-19.4c-2.1-5.9-3.6-11.8-4.5-17.7
					C7.7,96,7.5,95.4,7.3,94.8z M54.6,156.3c1.6,1.3,3.3,2.6,5,3.8c2.6,2,5.5,3.9,8.7,4.9c3.8,1.1,7.9,0.7,11,0.2
					c0.6-0.1,1.1-0.2,1.7-0.3c-7.9-1.4-15.7-4-23.1-7.7C56.8,157,55.7,156.6,54.6,156.3z M93.6,165.7c0.4,0,0.8,0,1.2,0
					c24.7,0,48.7-12.9,61.2-32.8c6-9.6,9.3-20.3,11-31.2c-2.3,7.3-5.8,14.2-10.4,20.3c-4,5.2-8.6,9.7-13.6,13.7
					c-6.2,6.7-12.6,12.9-20,17.7C113.9,159.1,103.5,162.7,93.6,165.7z M83.8,164.9c2.7,0.4,5.5,0.6,8.3,0.7c0.4-0.1,0.8-0.2,1.2-0.4
					c9.9-3,20.4-6.6,29.4-12.4c6.6-4.2,12.4-9.6,17.9-15.4c-7.4,5.6-15.6,10.2-23.7,14.4C106.6,157.2,95.6,162.4,83.8,164.9z
					 M60.3,157.9c7.1,3.3,14.5,5.6,22.1,6.8c12.2-2.4,23.6-7.7,34.2-13.3l0,0c-0.8,0.4-1.7,0.8-2.5,1.1c-16.4,6.9-33.5,9.1-49.3,6.3
					C63.3,158.6,61.8,158.3,60.3,157.9z M58.1,156.8c2.2,0.6,4.5,1.2,6.9,1.6c15.7,2.8,32.7,0.6,49-6.3
					c21.9-9.2,39.2-25.9,47.5-45.7c2.5-6,4.2-12.3,5-18.7c-0.4-14-6.1-27.5-13-37.5c-8.2-11.9-20.7-24.9-35.3-34.1
					c-2-1.1-4.1-2-6.2-3c-3.9-1.7-8.4-3.5-13.4-4.9C94.8,7.6,91,7.1,87.1,6.9c-13.6-1-24.9,0.5-34.3,4.7c-1.2,0.5-2.3,1.1-3.4,1.7
					c-12.2,8.3-21.8,20.3-30,31.8c-1.6,2.9-3.1,5.7-4.4,8.6c-1.8,5.8-3.2,11.8-4.4,17.6c-1,4.7-1.9,9.9-2.5,15.3
					c0.9,6.7,2.5,13.3,4.9,19.7c8.3,16.5,20.6,32,36.3,45.5C52,153.6,55,155.3,58.1,156.8z M53.5,155.4c0.7,0.2,1.4,0.5,2.1,0.7
					c-1.3-0.7-2.7-1.5-4-2.2C52.2,154.4,52.9,154.9,53.5,155.4z M8.7,98.4c0.9,5.2,2.3,10.4,4.1,15.6c2.7,7.5,6.1,14,10.1,19.3
					c7.1,9.6,17.4,17.1,29.2,21.5c-1.1-0.9-2.2-1.8-3.3-2.8c-6.7-4.3-12.9-9.6-18.3-15.6c-7.9-8.8-14.1-19.1-18.1-30
					C11.1,103.8,9.9,101.1,8.7,98.4z M14.5,110.5c4,9.3,9.5,18.1,16.4,25.7c4.6,5.1,9.7,9.6,15.2,13.5
					C32.9,137.8,22.2,124.6,14.5,110.5z M166.4,91c-0.9,5.3-2.4,10.6-4.5,15.6c-6.1,14.6-17.2,27.5-31.3,37.1
					c4.1-2.5,8.2-5.3,12-8.3c1.6-1.7,3.1-3.4,4.6-5.1c5.9-6.6,11-12.6,14.5-19.7C164.8,104.2,166.2,97.6,166.4,91z M166.8,88.2
					c0.2,8.1-1.4,15.8-4.7,22.6c-3.5,7.2-8.6,13.2-14.5,19.8c-0.8,0.9-1.6,1.7-2.3,2.6c4-3.4,7.7-7.2,10.9-11.4
					c5.3-6.9,9-14.9,11.2-23.3c1.3-11,1.1-22.1,0.4-32.1c-0.2-0.7-0.4-1.4-0.6-2.1c-2.1-7.5-5.6-14.6-10.2-21.2
					C165.5,55.8,168.9,72.1,166.8,88.2z M8.4,96.4c0.8,2.1,1.7,4.2,2.7,6.3C9.6,98,8.5,93.3,7.8,88.5c0,0.3-0.1,0.6-0.1,0.8
					C7.8,91.7,8.1,94,8.4,96.4z M7.4,93.7c0.1,0.3,0.2,0.6,0.3,0.9c-0.1-0.7-0.2-1.5-0.2-2.2C7.4,92.8,7.4,93.2,7.4,93.7z
					 M168.4,69.5c0.5,8,0.6,16.5-0.2,25C169.9,86.3,170,77.7,168.4,69.5z M28.5,26.5c-5.1,4.6-9.8,9.4-14.2,14.2
					c-5,5.4-10,11.4-11.9,18.5c-1.7,6.3-0.7,13.1,0.4,18.3c1,5.1,2.5,10.1,4.2,15.1c0.1-1.1,0.2-2.1,0.3-3.2
					c-0.1-2.1-0.1-4.2-0.1-6.2C7,81,6.9,78.8,6.8,76.6c0-6.3,0.7-11.2,2.2-15.4c1.6-4.3,4.1-8.1,7-12.2c2.6-7.1,5.9-14,10.6-20.1
					C27.2,28.1,27.8,27.3,28.5,26.5z M123,18.7c11.6,8.2,22.4,19,30.8,31.2c6.3,9.2,10.5,19.4,12.2,29.8c0.3,1.8,0.5,3.6,0.6,5.4
					C168,69.6,164.3,54,155.8,42c-0.5-0.7-1.1-1.5-1.6-2.2C144.2,32.4,134,24.9,123,18.7z M7.6,83.1c0,0.5,0.1,1,0.1,1.5
					c0.6-4.8,1.5-9.3,2.3-13.5c0.9-4.6,2-9.3,3.4-14.1C10.6,64.1,8.7,71,8,77.8C7.8,79.6,7.7,81.3,7.6,83.1z M15.4,50.7
					c-2.4,3.6-4.5,7-5.9,10.7c-1.5,4.2-2.2,9-2.2,15.2c0,0.9,0,1.8,0.1,2.6c0-0.5,0.1-1,0.1-1.5c0.9-8,3.2-16.2,7.1-24.5
					C14.8,52.4,15.1,51.5,15.4,50.7z M156.6,41.7c4.9,6.8,8.7,14.2,10.9,22c-0.1-1.1-0.2-2.1-0.3-3.2c-0.3-3.2-0.6-6-1.7-8.6
					C163.8,47.6,160.1,44.3,156.6,41.7z M16.4,49.3c-0.1,0.3-0.2,0.5-0.3,0.8c0.3-0.5,0.5-1,0.8-1.5c-0.1,0.2-0.3,0.4-0.4,0.6
					C16.5,49.2,16.4,49.3,16.4,49.3z M31.6,23.9c-1.7,1.7-3.2,3.5-4.6,5.3c-4.3,5.6-7.5,11.9-10,18.4c0.6-0.9,1.3-1.8,1.9-2.7
					c1-1.8,2.1-3.6,3.3-5.4c8-12.3,17-21.3,26.9-26.6c1.6-1.1,3.3-2.1,5-3.1l0,0c0.2-0.1,0.3-0.2,0.5-0.3
					C46.2,12.9,38.6,18,31.6,23.9z M44.6,16.1c-8,5.4-15.3,13.3-22,23.6c-0.1,0.1-0.1,0.2-0.2,0.3C28.7,31.5,36,22.9,44.6,16.1z
					 M118.8,15.9c12.1,6.3,23.3,14.4,34.2,22.4c-3.8-4.6-8.4-9-14.1-13.3c-1.6-1.2-3.2-2.4-4.9-3.5c-7.3-4.5-15.4-8.1-24.2-10.6
					c0.1,0.1,0.2,0.1,0.3,0.2C113.1,12.5,116,14.1,118.8,15.9z M59.6,7.1c-8.4,2.6-16.2,6.7-22.8,12c6.7-4.9,13.9-9,21.8-11.6
					C58.9,7.4,59.3,7.3,59.6,7.1z M107.4,9.7c6.8,1.8,13.2,4.1,19.2,7.1c-10.6-6.1-21.8-10.2-33-11.9C98.2,6,102.8,7.6,107.4,9.7z
					 M102.9,9.1c3.4,1.1,6.5,2.4,9.2,3.6c0.4,0.2,0.8,0.4,1.2,0.5c-2-1.1-4-2.1-6.1-3.1C105.8,9.8,104.3,9.4,102.9,9.1z M54.2,10
					l0.1,0.2c-0.5,0.3-0.9,0.5-1.4,0.8C62.3,6.9,73.5,5.4,87,6.4c2.2,0.2,4.4,0.4,6.6,0.7C84.4,5,73.8,4.3,63,6.8
					c-1.5,0.4-2.9,0.8-4.3,1.2c-1.5,0.6-2.9,1.4-4.4,2.2L54.2,10z M98.6,7.8c2.1,0.4,4.1,0.8,6.1,1.2C99,6.6,93.1,4.9,87.1,4.1
					c-1.9-0.1-3.8-0.2-5.7-0.2c-5.5,0-10.9,0.6-16.1,1.8c-0.7,0.2-1.4,0.4-2.2,0.7C75.7,3.3,88.2,4.9,98.6,7.8z"/>
			</g>
		</g>
		<g>
			<g>
				<path class="st0" d="M81.4,171.3c-8.2,0-16.5-1.1-24.5-3.8c-22.4-7.5-40.6-28-46.5-52.1c-0.2-0.9-0.4-1.7-0.6-2.6
					c-4.2-7.3-8.2-15-9.3-23.6c-1.4-12.1,3.4-24.2,8-34.6c3.4-7.7,7.1-15.7,12.8-22.2C31.4,20.9,46,15.5,60.3,13
					c4.7-3.1,9.6-5.9,14.6-8.3C79.7,2.4,86.1-0.1,92.8,0c7.4,0.2,14.4,3.7,21,7.3c6.8,3.8,13.9,8,20.5,12.9
					c10.9,6.5,20,16.8,25.9,29c3.4,6.1,5.5,12.8,6.4,20c2.7,16,0.7,33.6-5.8,50.5c-0.3,0.9-0.6,1.8-1,2.7c-3.1,8.4-7.4,16-12.7,22.5
					c-1.9,4.5-4.3,9.7-8.7,12.8c-2.3,1.7-5,2.7-8.1,3.7c-1.8,0.6-3.6,1.2-5.5,1.8c-9.7,5-20.6,7.4-31.5,7.2
					C89.5,171,85.5,171.3,81.4,171.3z M10.7,114.1c0.1,0.4,0.2,0.8,0.3,1.2c5.8,24,24,44.3,46.2,51.8c10.7,3.6,21.9,4.3,32.9,3.4
					c-7.6-0.5-15.2-2.3-22.1-5.3c-6-2.6-11.4-6.1-16.5-10c-8-4.5-15.5-9.2-21.9-15.3C21.8,132.3,15.9,123,10.7,114.1z M54.4,156.7
					c4.3,3.1,8.8,5.8,13.6,7.9c7.9,3.5,16.6,5.3,25.3,5.4c11-1.3,21.7-4.1,31.3-7.2c0.6-0.3,1.3-0.7,1.9-1
					c6.8-3.8,12.9-8.8,18.2-14.8c-10.4,11.2-25.5,18.3-41.6,20.1c-7.9,2.1-15.7,2.3-23.1,0.7c-7.8-1.7-14.9-5.3-22.6-9.5
					C56.5,157.8,55.5,157.3,54.4,156.7z M121.8,164.3c-7.6,2.3-15.9,4.4-24.4,5.7C105.8,169.7,114.1,167.8,121.8,164.3z M51.7,154.7
					c2,1.1,4,2.2,6,3.3c7.8,4.2,14.8,7.8,22.5,9.4c6.9,1.5,13.7,1.3,20.1,0c-5.4,0.4-10.8,0.1-16.2-0.7
					c-15.7-2.5-30.8-10.2-43.4-21.7C44.2,148.4,47.8,151.7,51.7,154.7z M10.9,77.5c-0.1,2.3-0.1,4.7,0.1,7c1,16,7.1,31.9,17.6,46.2
					c14.1,19.1,34.4,32,55.6,35.5c6.4,1,13,1.2,19.3,0.4c13.5-3.7,25.3-12.4,33.4-21.4c9.6-10.8,19.3-25.9,24.9-42.3
					c0.5-2.2,1-4.5,1.4-6.8c0.8-4.2,1.4-9,1.6-14.2c-0.2-3.8-0.7-7.6-1.3-11.4c-2.2-13.5-6.4-24.1-12.7-32.3c-0.8-1-1.6-2-2.4-2.9
					c-10.9-10-24.9-16.5-37.9-21.7c-3.2-0.9-6.3-1.7-9.4-2.3c-6-0.3-12.2-0.3-18.1,0c-4.8,0.2-10,0.5-15.5,1.1
					c-6.3,2.4-12.3,5.5-18,9.3c-14.1,12-26.3,27.6-35.7,45.9C12.6,70.9,11.7,74.2,10.9,77.5z M160.4,108.3
					c-5.2,13.2-13.3,26.3-23.1,37.3c-7.4,8.3-16.4,14.8-26.1,18.9c-1.7,0.7-3.4,1.3-5.1,1.9c15.4-2.3,29.6-9.6,39.4-20.7
					c0.6-0.7,1.2-1.4,1.8-2.1C152.1,132.1,157,120.4,160.4,108.3z M146,146.3c-5.4,6.4-11.8,11.7-18.8,15.8c1-0.3,2-0.7,3-1
					c3-1,5.7-2,8-3.7C141.9,154.7,144.2,150.4,146,146.3z M10.3,112.6c0.2,0.4,0.4,0.7,0.6,1.1c5.2,9,11.2,18.3,18.9,25.7
					c5.7,5.4,12.2,9.8,19.2,13.8c-7.2-5.9-13.6-12.8-19.5-19.7c-7.6-8.7-15.2-18.2-20.4-29.1C9.4,107.2,9.8,109.9,10.3,112.6z
					 M162.2,103.6c-3.3,13.3-8.5,26-13.8,38.4c3.6-4.7,6.7-10.3,9.7-16.8c0.8-1.8,1.6-3.7,2.3-5.6c2.7-8.1,4.3-16.9,4.6-26
					c0,0.1-0.1,0.2-0.1,0.3C164.2,97.1,163.3,100.3,162.2,103.6z M9,103c5.2,11.3,13.1,21.2,20.9,30.2l0,0c-0.6-0.7-1.1-1.5-1.7-2.2
					c-10.6-14.3-16.7-30.4-17.7-46.4c-0.1-1.5-0.1-3.1-0.1-4.6C8.9,87.7,8.4,95.4,9,103z M165.6,91c-0.1,7-0.9,13.8-2.4,20.3
					c3.4-11.7,4.8-23.6,3.9-34.9C167,81.1,166.5,86,165.6,91z M59.3,13.6c-13.8,2.6-27.9,7.9-37.6,19C16,39.2,12.2,47.1,8.9,54.8
					C4.3,65.1-0.4,77.2,1.1,89.1c1,8,4.6,15.3,8.5,22.2c-0.5-2.7-0.9-5.4-1.1-8.2c-0.4-0.9-0.8-1.9-1.2-2.8c-1.2-3-2.6-6.9-2.4-10.9
					c0.2-3.4,1.4-6.7,2.7-9.8c1-2.4,2-4.7,3.1-7c1.4-13.1,6.4-25.5,14.3-35c4.3-5.2,9.9-10,16.5-14.4c5.2-3.5,10.7-6.3,16.2-8.5
					C58.3,14.3,58.8,14,59.3,13.6z M10.7,74c-0.9,1.9-1.7,3.8-2.6,5.8c-1.3,3-2.5,6.3-2.7,9.6c-0.2,3.9,1.2,7.8,2.3,10.7
					c0.2,0.5,0.4,1.1,0.7,1.6c-0.5-8,0.2-16.2,2-24.3C10.5,76.3,10.6,75.2,10.7,74z M165.1,86.4c-0.3,3.5-0.8,6.8-1.3,9.8
					c-0.1,0.4-0.2,0.9-0.2,1.3c0.6-2.2,1.1-4.4,1.6-6.7C165.1,89.4,165.1,87.9,165.1,86.4z M165.3,82c0.1,2.1,0.2,4.2,0.2,6.2
					c1-6.1,1.3-12.2,0.7-18.2c-0.3-1.9-0.7-3.8-1.1-5.6c-1.3-5.3-3.1-10.5-5.5-15.3c-0.4-0.7-0.8-1.3-1.2-2
					C164.3,58.7,165.7,71.1,165.3,82z M151.5,38.4c6.2,8.2,10.3,18.7,12.5,32.1c0.4,2.2,0.7,4.4,0.9,6.6c-0.2-9.6-2-20.1-7-29.9
					c-0.7-1.3-1.4-2.6-2.2-3.9c-1-1.3-2-2.5-3.1-3.7C152.3,39.2,151.9,38.8,151.5,38.4z M11.3,72.7c-0.1,0.7-0.1,1.5-0.2,2.2
					c0.4-1.5,0.8-2.9,1.2-4.4C12,71.3,11.6,72,11.3,72.7z M56.1,15.9c-4.8,2.1-9.6,4.6-14.2,7.7c-6.6,4.4-12.1,9.2-16.4,14.3
					C17.9,47,13,58.8,11.4,71.3c0.6-1.3,1.3-2.6,1.9-3.8C16,59.9,19.6,52.7,24.2,46c6.7-9.8,15.3-18.1,24.9-24.6
					C51.5,19.4,53.8,17.6,56.1,15.9z M45.8,24.3c-8.1,6-15.4,13.5-21.2,21.9c-3.9,5.6-7.1,11.7-9.5,17.9
					C23.5,48.6,33.9,35.1,45.8,24.3z M156.2,43c0.2,0.3,0.5,0.6,0.7,0.9c-4.5-7.6-10.3-14.2-17-19.4C146.2,29.9,151.8,36,156.2,43z
					 M153,39.2c0.1,0.1,0.3,0.3,0.4,0.4c-5.3-7.4-12-13.6-19.3-19c-2-1.2-4.1-2.3-6.2-3.2c-6.5-2.9-13.3-4.5-20.2-5.4
					c1,0.4,2.1,0.8,3.1,1.2c2,0.6,4,1.2,6,1.9c13.9,4.9,24.7,11.5,32.1,19.9C150.2,36.4,151.6,37.8,153,39.2z M116.1,15.5
					c9.8,4.2,19.8,9.2,28.5,16c-7.1-6.5-16.5-11.8-28.1-15.9C116.4,15.6,116.2,15.5,116.1,15.5z M58.1,15.1
					c-1.8,1.3-3.7,2.7-5.5,4.1c4.2-2.5,8.5-4.7,13-6.5c-0.3,0-0.6,0.1-0.8,0.1C62.5,13.4,60.3,14.2,58.1,15.1z M105.9,11.4
					c7.5,0.8,15,2.5,22,5.6c0.9,0.4,1.8,0.8,2.7,1.3c-5.6-3.9-11.5-7.3-17.2-10.5c-6.5-3.6-13.4-7.1-20.7-7.3
					C86.1,0.3,79.8,2.9,75,5.1c-4.7,2.2-9.2,4.8-13.7,7.6c1.1-0.2,2.1-0.3,3.2-0.5c2-0.6,4-1.1,6-1.5c2.1-0.7,4.2-1.3,6.3-1.8
					c6.1-1.5,11-2,15.5-1.5C96.9,8,101.2,9.5,105.9,11.4z M60.5,13.4c-0.3,0.2-0.5,0.3-0.8,0.5c0.7-0.3,1.4-0.5,2.1-0.7
					C61.3,13.3,60.9,13.3,60.5,13.4z M104.8,11.7c0.6,0.1,1.1,0.3,1.7,0.4c-0.2-0.1-0.4-0.2-0.6-0.2c-0.1,0-0.1,0-0.2-0.1
					C105.4,11.8,105.1,11.7,104.8,11.7z M70.8,11.2c-0.5,0.2-1,0.3-1.4,0.5c4.8-0.5,9.4-0.8,13.6-0.9c4.6-0.2,9.5-0.2,14.5,0
					C90,9.6,82.8,9.5,76,10.3C74.3,10.5,72.5,10.8,70.8,11.2z M101.4,11c0.9,0.1,1.8,0.1,2.7,0.2C100,9.7,96.3,8.4,92.3,8
					C87.9,7.4,83.1,7.9,77,9.4c-0.8,0.2-1.7,0.4-2.5,0.7C75,10,75.5,10,76,9.9C84,8.8,92.5,9.2,101.4,11z"/>
			</g>
		</g>
	</g>
	<g>
		<g>
			<g>
				<path class="st0" d="M88.7,171c-17.2,0-34.9-6.3-48.5-17.8c-0.7-0.6-1.3-1.2-2-1.8c-7.7-3.4-15.5-7.3-21.4-13.6
					c-8.3-8.9-11.6-21.5-14-32.7C1,96.9-0.6,88.2,0.2,79.6C1.6,64.3,10.3,51.4,20.4,41c2-5.3,4.3-10.4,7-15.3
					C29.9,21,33.6,15.2,39,11.4C45.2,7.2,52.9,5.9,60.3,5C68,4.1,76.2,3.3,84.5,3.4c12.7-1.1,26.1,1.8,38,8.2
					c6.3,2.9,12,7.1,16.9,12.5c11.6,11.3,20.3,26.8,25,44.3c0.3,0.9,0.6,1.8,0.8,2.7c2.4,8.6,3.4,17.3,2.9,25.7
					c1.1,4.7,2.2,10.4,0.5,15.4c-0.9,2.7-2.5,5.1-4.4,7.8c-1.1,1.5-2.2,3.1-3.4,4.7c-4.9,9.7-12.3,18.1-21.2,24.3
					c-8.9,8.2-19.3,15.2-31.3,18.9C102.1,170,95.4,171,88.7,171z M39.6,152c0.3,0.3,0.6,0.5,0.9,0.8c18.8,16,45.4,21.8,67.8,14.8
					c10.8-3.4,20.3-9.4,28.6-16.6c-6.5,4.1-13.6,7.1-21.1,8.7c-6.4,1.4-12.8,1.8-19.2,1.6c-9.1,1.1-18,1.6-26.7,0.4
					C59.3,160.2,49.1,156.1,39.6,152z M38.5,151c0.4,0.2,0.8,0.3,1.1,0.5c9.5,4.2,19.8,8.2,30.4,9.7c7.8,1.1,15.6,0.7,23.7-0.1
					c-9.3-0.6-18.5-2.4-27.4-4.4C55,154,43.2,150.8,32.7,145C34.5,147.1,36.4,149.1,38.5,151z M145.7,140.6
					c-5.1,6.3-11.3,11.1-18.2,14.1c-7.3,3.2-15.1,4.4-23.9,5.6c-1.2,0.2-2.3,0.3-3.5,0.5c5.2,0,10.5-0.5,15.7-1.6
					c8.5-1.8,16.5-5.4,23.7-10.4c8.2-7.5,15.2-16.1,21.1-24.2c0.3-0.6,0.6-1.3,0.9-2c3.3-7.1,5.3-14.7,6-22.7
					C165.7,115,157.6,129.7,145.7,140.6z M82.1,159.3c4.8,0.8,9.7,1.3,14.5,1.5c2.3-0.3,4.5-0.6,6.8-0.9c8.7-1.2,16.5-2.4,23.8-5.6
					c6.5-2.8,11.8-7,16.3-11.8c-4.1,3.5-8.7,6.5-13.6,8.9C115.8,158.5,99,161.2,82.1,159.3z M18.3,122.2c1.3,1.9,2.7,3.8,4.2,5.6
					c10.2,12.3,24.5,21.7,41.4,27c22.6,7.2,46.6,5.7,65.8-3.9c5.8-2.9,11.2-6.7,15.9-11c8.8-10.9,13.2-24.9,14.5-36.9
					c1.5-14.4,0.4-32.4-4.7-48.9c-0.9-2.1-1.8-4.2-2.8-6.3c-1.8-3.8-4.2-8.1-7-12.4c-2.4-2.9-5-5.7-7.8-8.5
					c-9.7-9.6-19.3-15.7-29.2-18.7c-1.2-0.4-2.4-0.7-3.7-0.9C90.2,5.6,75.1,8.6,61.4,12c-3.1,1.1-6.1,2.3-8.9,3.6
					c-5.2,3.3-10.1,6.9-14.8,10.6c-3.8,2.9-7.8,6.3-11.9,10c-3.7,5.6-6.7,11.7-9.1,18.1c-4.4,18-5.1,37.7-1.9,58.1
					C15.8,115.9,17,119.1,18.3,122.2z M31.8,144c10.8,6.1,23,9.5,34.6,12.1l0,0c-0.9-0.3-1.8-0.5-2.7-0.8
					c-17-5.4-31.4-14.8-41.6-27.2c-1-1.2-1.9-2.4-2.8-3.6C22.6,131.6,26.8,138.2,31.8,144z M20,42.1C10.3,52.3,2,64.9,0.7,79.6
					c-0.8,8.6,0.9,17.2,2.6,25.4c2.4,11.1,5.7,23.6,13.9,32.4c5.5,5.9,12.7,9.7,19.9,12.9c-2-1.9-3.9-3.9-5.7-6
					c-0.9-0.5-1.8-1-2.6-1.6c-2.7-1.7-6.2-4.1-8.3-7.5c-1.9-2.9-2.8-6.3-3.5-9.5c-0.6-2.5-1.1-5-1.6-7.5c-6.6-11.4-9.8-24.4-9-36.8
					c0.4-6.7,2.1-13.9,4.9-21.4c2.2-5.9,4.9-11.4,8.1-16.4C19.6,43.2,19.8,42.7,20,42.1z M159,127.4c-4.8,6.4-10.2,12.9-16.4,18.9
					C149.2,141.1,154.8,134.6,159,127.4z M16.1,119.5c0.4,2.1,0.8,4.1,1.3,6.2c0.7,3.2,1.6,6.6,3.5,9.4c2.1,3.3,5.5,5.6,8.2,7.3
					c0.5,0.3,1,0.6,1.5,0.9c-5.1-6.2-9.4-13.3-12.6-20.9C17.3,121.5,16.7,120.5,16.1,119.5z M157.4,59.3c3.5,13.7,4.7,29,3.2,43.7
					c-1.1,11.1-4.6,21.6-10,30.6c-0.9,1.6-2,3.1-3,4.5c11.1-10.9,18.3-25.2,19.7-39.9c0.1-0.9,0.1-1.8,0.2-2.7
					C164.6,83.5,161.7,71.1,157.4,59.3z M168.1,98.6c-0.6,8.3-2.6,16.4-6,23.8c0.6-0.9,1.2-1.7,1.9-2.6c1.8-2.6,3.4-4.9,4.3-7.6
					C169.7,107.8,169,102.9,168.1,98.6z M15.8,118.1c0.4,0.6,0.7,1.3,1.1,1.9c-0.6-1.4-1.1-2.8-1.6-4.3
					C15.5,116.6,15.7,117.4,15.8,118.1z M18.7,45.8c-2.7,4.5-5,9.4-7,14.6C8.9,67.8,7.3,75,6.8,81.6C6,93.5,9,105.9,15,116.9
					c-0.3-1.4-0.5-2.8-0.7-4.2c-2.3-7.6-3.6-15.7-3.8-23.8c-0.3-11.8,1.7-23.7,5.7-34.6C17,51.4,17.8,48.6,18.7,45.8z M15.3,58.7
					c-3,9.7-4.5,19.9-4.2,30.2c0.2,6.8,1.1,13.6,2.8,20.1C11.5,91.4,12,74.4,15.3,58.7z M156,54.5c5.2,12.7,8.4,26.1,11.4,39.2
					c0.1-5.9-0.6-12.3-2.1-19.3c-0.4-2-0.9-3.9-1.4-5.8c-2.6-8.2-6.5-16.2-11.5-23.8c0,0.1,0.1,0.2,0.1,0.3
					C153.9,48.1,155,51.2,156,54.5z M151.4,42.3c4,5.7,7.4,11.7,10,17.9c-4.1-11.5-10-21.9-17.4-30.5
					C146.8,33.5,149.2,37.7,151.4,42.3z M19.8,44c-0.7,2.1-1.4,4.3-2,6.5c1.9-4.5,4.1-8.8,6.6-12.9c-0.2,0.2-0.4,0.4-0.6,0.6
					C22.4,40,21.1,42,19.8,44z M148.3,38.9c1.8,3,3.4,6,4.7,8.7c0.2,0.4,0.4,0.8,0.6,1.2c-0.8-2.1-1.7-4.3-2.6-6.3
					C150.1,41.3,149.2,40.1,148.3,38.9z M20.8,41.2c-0.1,0.3-0.2,0.6-0.3,0.9c0.4-0.6,0.8-1.2,1.2-1.8
					C21.4,40.6,21.1,40.9,20.8,41.2z M80.4,3.9c-6.8,0.2-13.6,0.8-20,1.6c-7.3,0.9-15,2.1-21,6.3c-5.4,3.7-9,9.5-11.6,14.1
					c-2.5,4.5-4.7,9.3-6.6,14.2c0.8-0.8,1.5-1.5,2.3-2.3c1.3-1.7,2.6-3.3,4-4.8c1.3-1.8,2.6-3.5,4-5.2c4-4.8,7.7-8.1,11.7-10.3
					s8.3-3.5,13.2-4.8C62.9,9.1,70,6.1,77.5,4.4C78.4,4.2,79.4,4.1,80.4,3.9z M145.9,35.1c1.3,1.6,2.6,3.2,3.8,4.9
					c-2.8-5.5-6.1-10.6-10.2-15.1c-1.4-1.3-2.8-2.6-4.2-3.9c-4.2-3.6-8.7-6.6-13.4-9.1c-0.7-0.3-1.4-0.6-2.1-0.9
					C131.4,16.9,139.9,26.1,145.9,35.1z M27.8,33.4c-0.3,0.4-0.6,0.8-0.9,1.2c3.6-3.2,7.2-6.2,10.5-8.7c3.7-2.9,7.6-5.8,11.7-8.5
					c-6.7,3.5-12.6,7.5-17.6,12.2C30.3,30.8,29,32.1,27.8,33.4z M109.1,8c9.8,3,19.3,9.1,29,18.7c1.6,1.6,3.1,3.2,4.6,4.8
					c-5.8-7.7-13.4-15.1-23.2-20.1c-1.3-0.7-2.7-1.3-4.1-1.9c-1.5-0.5-3.1-0.9-4.7-1.2l0,0C110.2,8.2,109.7,8.1,109.1,8z M54.8,13.8
					c-4.2,1.1-8,2.3-11.4,4.3c-3.9,2.2-7.6,5.4-11.6,10.2c-0.6,0.7-1.1,1.4-1.7,2c0.4-0.3,0.7-0.7,1.1-1c5.9-5.5,13-10.2,21.3-14
					C53.2,14.7,54,14.2,54.8,13.8z M56.4,13.4c-0.3,0.1-0.5,0.3-0.8,0.4c0.5-0.2,1.1-0.4,1.6-0.7c-0.2,0.1-0.4,0.1-0.6,0.2
					C56.5,13.3,56.5,13.3,56.4,13.4z M84.5,3.9c-2.3,0.2-4.7,0.6-6.9,1c-6.9,1.5-13.4,4.2-19.5,7.5c1.1-0.3,2.1-0.6,3.2-0.8
					c1.9-0.7,3.9-1.3,6-2C81.3,5.4,94,4.5,105,6.9c2,0.2,3.9,0.5,5.8,0.9c0.2,0,0.4,0.1,0.6,0.1C102.8,5,93.6,3.9,84.5,3.9z
					 M92.5,6.1c-7.7,0-16.1,1.3-25.1,4c-0.1,0-0.3,0.1-0.4,0.1C77.4,7.8,88.5,6,99.4,6.4C97.2,6.2,94.9,6.1,92.5,6.1z M115.6,9
					c0.4,0.1,0.7,0.2,1.1,0.3c-8.1-3.5-16.7-5.4-25.1-5.7C99.8,4.2,108,5.8,115.6,9z"/>
			</g>
		</g>
		<g>
			<g>
				<path class="st0" d="M80.1,175.2c-0.4,0-0.9,0-1.3-0.1c-2.9-0.2-5.6-1.2-8.6-2.4c-1.8-0.7-3.5-1.4-5.4-2.2
					c-10.6-2.5-20.5-7.8-28.6-14.9c-10.1-6.8-19.3-15.2-25.7-26C-1.6,109.4-2.2,82,9,59.8c0.4-0.8,0.8-1.6,1.2-2.3
					c1.5-8.2,3.5-16.8,8.2-24C25.2,23.3,36.7,17.2,47,12.2c7.5-3.6,15.6-7.3,24.2-8.6c15.1-2.2,29.8,3.2,42.2,10.6
					c5.6,0.7,11.1,1.7,16.5,3.2c5.1,1.4,11.7,3.6,16.7,8c5.5,5,8.6,12.2,11.2,19.2c2.7,7.3,5.4,15.1,7.3,23.1
					c4,12,4.3,25.8,0.9,38.9c-1.4,6.8-4.1,13.3-8.1,19.4c-8.3,13.9-21.3,26-37.2,34.7c-0.8,0.5-1.6,1-2.5,1.4
					c-7.8,4.3-16,7.3-24.3,8.9C89.8,173,85,175.2,80.1,175.2z M67.5,171.1c1,0.4,2,0.8,3,1.2c2.9,1.2,5.6,2.2,8.4,2.4
					c4.6,0.4,9.2-1.4,13.2-3.3C83.8,172.7,75.5,172.6,67.5,171.1z M65.1,170.1c0.7,0.2,1.4,0.3,2.1,0.5c7.6,1.5,15.6,1.7,23.5,0.5
					c-15.2,1.8-31.3-2.6-44.7-11.7c-7.3-3.5-13.5-8.4-18-14.4c-4.8-6.3-7.9-13.7-11.1-21.9c-0.4-1.1-0.8-2.2-1.3-3.3
					c1.2,5.1,2.9,10.1,5.2,14.9c3.8,7.8,9.2,14.8,15.7,20.6C45.8,161.4,55.8,166.2,65.1,170.1z M48.8,160.6
					c13.2,8.2,28.8,11.9,43.4,9.8c0.9-0.1,1.8-0.3,2.7-0.5c11-5.5,22.4-11.2,32.8-18.2c-12.5,6.7-27.1,11.4-41.8,13.3
					c-11,1.5-22.1,0.6-32.1-2.6C52.1,161.9,50.4,161.3,48.8,160.6z M132.1,149.2c-11.1,8-23.4,14.3-35.4,20.3
					c5.8-1.3,11.8-3.4,18.3-6.5c1.8-0.9,3.6-1.8,5.3-2.7c7.3-4.4,14.2-10.1,20.4-16.8c-0.1,0.1-0.2,0.1-0.3,0.2
					C137.8,145.7,135,147.5,132.1,149.2z M39.7,157.8c6.6,5.2,14.2,9.1,22.3,11.5C54.6,166.1,47,162.3,39.7,157.8z M46.6,159.2
					c12.7,6,27.3,7,39.3,5.4c14.3-1.9,31.5-7.2,46.4-16c1.9-1.4,3.7-2.8,5.5-4.2c3.3-2.7,6.9-5.9,10.4-9.7c2.3-3,4.4-6.2,6.4-9.5
					c7.1-11.7,10.8-22.4,11.3-32.8c0.1-1.3,0.1-2.5,0.1-3.8c-1.8-14.7-8.2-28.7-14.8-41.1c-1.8-2.8-3.7-5.4-5.6-7.8
					c-4.4-4.3-9.1-8.2-13.7-11.9c-3.7-3-7.9-6.2-12.5-9.2c-6.3-2.3-13-3.8-19.7-4.6c-18.5-0.1-37.9,3.9-57,11.8
					c-3,1.7-5.8,3.6-8.6,5.7c-1.6,1.7-3.1,3.5-4.5,5.4C20,49.7,14.3,65.8,13,83.5c-1.7,23.7,5.4,46.7,19.3,63
					C36.4,151.3,41.3,155.6,46.6,159.2z M14.9,116.4c0.8,2.1,1.6,4.3,2.4,6.4c3.2,8.2,6.2,15.5,11,21.8c4.3,5.6,9.5,9.9,15.3,13
					c-4.3-3.2-8.3-6.9-11.9-11.1c-10.2-12-16.7-27.6-18.8-44.5C13.3,106.8,13.9,111.7,14.9,116.4z M142.8,141.9
					c-4.6,5.2-9.7,9.9-15,13.9c10.2-6.7,18.9-14.9,25.6-24C150.4,135.3,146.8,138.7,142.8,141.9z M10,58.9c-0.2,0.4-0.4,0.7-0.5,1.1
					C-1.7,82-1.1,109.3,11,129.4c5.8,9.7,13.9,17.5,22.8,23.9c-5.5-5.3-10.1-11.6-13.4-18.4c-2.8-5.9-4.7-12-6-18.3
					c-3.2-8.6-5.8-17.1-6.7-25.9C6.7,80,8.2,69.1,10,58.9z M145.4,138.1c-2.5,2.5-5,4.7-7.4,6.6c-0.3,0.3-0.7,0.6-1,0.8
					c1.9-1.3,3.7-2.6,5.5-4C143.5,140.4,144.5,139.3,145.4,138.1z M148.5,134.9c-1.3,1.7-2.5,3.3-3.9,4.9c4.7-4,8.9-8.5,12.3-13.4
					c1-1.6,1.9-3.3,2.8-5c2.5-4.9,4.4-10,5.7-15.2c0.1-0.7,0.3-1.5,0.4-2.2C162.8,116.5,155.9,126.9,148.5,134.9z M166.3,92.8
					c-0.6,10.3-4.3,20.9-11.3,32.5c-1.2,1.9-2.4,3.8-3.6,5.6c6.1-7.4,11.5-16.5,14.1-27.3c0.3-1.5,0.6-2.9,0.9-4.4
					c0.1-1.6,0.1-3.2,0-4.9l0,0C166.4,93.8,166.4,93.3,166.3,92.8z M10.7,57.6c-0.1,0.4-0.1,0.8-0.2,1.2C8.7,69,7.1,80,8.2,90.6
					c0.8,7.8,3,15.4,5.7,23c-1.6-9.2-2-18.5-2.1-27.7c-0.1-11.6,0.2-23.8,3.3-35.4C13.5,52.8,12.1,55.2,10.7,57.6z M166.8,99.3
					c0,0.4,0,0.7-0.1,1.1c1.5-8.7,1.4-17.5-0.4-25.8C167.8,82.8,168.1,91.1,166.8,99.3z M166.4,88.4c0.2,1.9,0.4,3.9,0.5,5.9
					c0,0.2,0,0.4,0,0.6c0.8-9-0.3-18.2-2.4-27c-0.8-2.2-1.6-4.4-2.6-6.5c-3.1-6.4-7.2-12.1-11.9-17.2c0.5,1,1,2,1.6,2.9
					c1.1,1.7,2.2,3.5,3.3,5.3C162.3,65.2,166.1,77.2,166.4,88.4z M15.9,49.4c-3.4,12-3.8,24.6-3.7,36.5l0,0c0-0.9,0.1-1.8,0.2-2.8
					c1.2-17.8,7-34,16.7-46.8C30,35.2,31,34,32,32.8C25.8,37.7,20.4,43.3,15.9,49.4z M154.2,52.3c4.8,9.6,9.1,19.9,11.3,30.6
					c-1.2-9.6-4.9-19.7-11.1-30.3C154.4,52.6,154.3,52.4,154.2,52.3z M149.2,42.6c5.2,5.5,9.8,11.7,13.1,18.5
					c0.4,0.9,0.8,1.8,1.2,2.7c-1.8-6.6-4-13-6.3-19.1c-2.6-6.9-5.6-14.1-11.1-19c-4.9-4.4-11.4-6.5-16.5-7.9c-5-1.4-10.1-2.4-15.4-3
					c0.9,0.6,1.8,1.1,2.7,1.7c1.9,0.8,3.8,1.8,5.6,2.7c2,0.8,4,1.7,6,2.7c5.6,2.8,9.7,5.6,12.7,8.9
					C144.5,34.2,146.8,38.2,149.2,42.6z M78.1,3.6c-2.3,0-4.6,0.2-6.9,0.5c-8.5,1.3-16.6,4.9-24,8.5c-10.2,4.9-21.6,11-28.3,21.1
					c-4.4,6.7-6.4,14.7-7.9,22.4c1.4-2.4,2.9-4.7,4.5-6.9c0.3-1,0.6-2,0.9-2.9c1-3.1,2.5-6.9,5.3-9.9c2.3-2.5,5.5-4.2,8.4-5.7
					c2.3-1.2,4.6-2.3,6.9-3.3c9.6-9.1,21.4-15.2,33.7-17.3c6.6-1.1,14-1.2,21.9-0.2c6.2,0.8,12.2,2.1,17.8,4
					c0.6,0.1,1.2,0.1,1.8,0.2C102,8.2,90.3,3.6,78.1,3.6z M36,28.5c-1.9,0.9-3.8,1.8-5.7,2.7c-2.9,1.5-6,3.1-8.3,5.6
					c-2.7,2.9-4.2,6.7-5.2,9.7c-0.2,0.6-0.4,1.1-0.5,1.7C21.1,41.8,27,36,33.6,31C34.4,30.1,35.2,29.3,36,28.5z M148.1,42.1
					c0.3,0.5,0.7,0.9,1,1.4c-0.1-0.2-0.2-0.4-0.3-0.6c0-0.1-0.1-0.1-0.1-0.2C148.5,42.6,148.3,42.4,148.1,42.1z M146,39.4
					c0.6,0.6,1.3,1.3,1.9,1.9c-2.1-3.8-4.1-7.2-6.8-10.1c-3-3.3-7-6.1-12.6-8.8c-0.8-0.4-1.6-0.8-2.4-1.1c0.4,0.3,0.8,0.5,1.3,0.8
					C134.1,26.4,140.4,32.2,146,39.4z M121.1,19.1c4,2.7,7.7,5.5,11,8.1c3.6,2.9,7.4,6,11.1,9.4c-4.9-5.7-10.3-10.5-16-14.2
					c-1.5-1-3-1.9-4.6-2.7C122.1,19.5,121.6,19.3,121.1,19.1z M37.3,27.9c-0.5,0.5-1.1,1-1.6,1.5c1.2-0.9,2.5-1.7,3.8-2.5
					C38.8,27.2,38.1,27.5,37.3,27.9z M82,9.7c-3.9,0-7.7,0.3-11.2,0.9c-11.8,2-23.1,7.8-32.4,16.3c1.3-0.6,2.6-1.1,3.9-1.7
					c6.9-4,14.4-7.2,22.2-9.3c11.5-3,23.5-3.9,35-2.5c3,0,5.9,0.1,8.8,0.3c-5-1.6-10.3-2.7-15.8-3.4C88.9,9.9,85.4,9.7,82,9.7z
					 M88.8,13.2c-8.1,0-16.2,1-24.1,3.2c-6.6,1.8-12.9,4.3-18.9,7.4C62.3,17.4,79,13.9,95,13.4C92.9,13.3,90.8,13.2,88.8,13.2z
					 M103.5,13.9c4.8,0.8,9.5,1.9,14.1,3.4c-0.2-0.2-0.5-0.3-0.7-0.5c-2.1-0.9-4.3-1.8-6.6-2.6C108.1,14.2,105.8,14,103.5,13.9z
					 M112.3,14.6c0.7,0.3,1.4,0.5,2,0.8c-0.4-0.2-0.8-0.5-1.1-0.7C113,14.6,112.6,14.6,112.3,14.6z"/>
			</g>
		</g>
	</g>
</g>
</svg>
